<svg xmlns="http://www.w3.org/2000/svg" viewBox="0 0 1080 1080"><defs><style>.cls-1{fill:#fff;stroke:#000;stroke-width:5px;}.cls-1,.cls-2{stroke-miterlimit:10;}.cls-2{stroke:#fff;}</style></defs><title>cipo_base</title><g id="Body"><path class="cls-1" d="M882.55,611.81c0,168.2-178.95,218.75-358.38,218.75s-364.72-48.77-364.72-217S344.73,221.44,524.17,221.44,882.55,443.61,882.55,611.81Z"/><path class="cls-1" d="M507.5,218.5s-144-232-146-148S508,221.44,508,221.44,693.5,133.5,651.5,84.5s-103,67-103,67Z"/></g><g id="Mouth"><path d="M593.17,570.72a395.2,395.2,0,0,1-186.24,11.94c-31-5.54-61.18-14.54-78.43-29.16-46-39-135-1-99,95S440.64,767.21,512,764c89-4,297-57,298-140s-68.5-126.5-127.5-90.5C657.84,548.55,624.1,561.15,593.17,570.72Z"/><path class="cls-1" d="M315.48,724.89s100-85.39,161-57.39c15.25,7,16,13,35,30,19.84,17.75,32,22,32,22s-65-49-51-57,79-30,134,1,74,54.61,74,54.61S507.47,810.28,315.48,724.89Z"/><path class="cls-1" d="M400.5,584.5s-15,51,1,58,63,6,67,0,2.44-50.84,2.44-50.84S440.5,592.5,400.5,584.5Z"/><path class="cls-1" d="M547.86,584.5s15,51-1,58-63,6-67,0-2.44-50.84-2.44-50.84S507.86,592.5,547.86,584.5Z"/></g><g id="Livello_3" data-name="Livello 3"><path class="cls-2" d="M453.5,432.5c0,33.14-10.52,60-23.5,60-11.55,0-21.53-17.94-23.5-46-.24-3.46,18-10.36,18-14,0-5-17.46-10.33-17-15,2.55-26.09,11.49-45,22.5-45C443,372.5,453.5,399.36,453.5,432.5Z"/><path class="cls-2" d="M563.5,432.5c0,33.14-10.52,60-23.5,60-11.55,0-21.53-17.94-23.5-46-.24-3.46,18-10.36,18-14,0-5-17.46-10.33-17-15,2.55-26.09,11.49-45,22.5-45C553,372.5,563.5,399.36,563.5,432.5Z"/></g><g id="Braccio_SX" data-name="Braccio SX"><path d="M113.43,832.19c-11.11,0-22.37-5.89-32.56-17-13.22-14.45-27.71-45-21.68-108.55C63.46,661.57,76.71,619,88,596.73c15-29.7,69.27-96.67,110-131.27-2.55,5.08-8.71,17.57-10.38,23.25a330.69,330.69,0,0,0-42.33,44C125.46,557.38,101.13,595.51,97.5,637c-3.34,38.16,13.66,62.23,28.5,75.71A103.4,103.4,0,0,0,159.35,733c.1,0,16.56,7.92,14.66,17.42-1.28,6.4-7.22,10.69-14.77,10.69-5.73,0-12.11-2.42-18.45-7C123.13,741.34,118,730.4,118,730.29l-1.45-3.15.49,3.43c0,.28,4.29,28.42,27.16,49.3,6.56,6,8,16,3.82,26.74C143.2,818.93,130.35,832.19,113.43,832.19Z"/><path d="M196.39,467.45c-2.89,5.83-7.74,15.92-9.26,21a331.43,331.43,0,0,0-42.29,43.94,266.2,266.2,0,0,0-30.72,47.31c-9.75,19.6-15.51,38.86-17.12,57.23-1.48,16.93.87,32.55,7,46.41A88,88,0,0,0,125.67,713a104.3,104.3,0,0,0,33.45,20.39c1,.48,16.17,8,14.4,16.87-1,5.13-5.84,10.29-14.28,10.29-5.62,0-11.9-2.38-18.15-6.9-17.53-12.66-22.63-23.5-22.68-23.6l-2.89-6.36,1,6.91c0,.28,4.32,28.6,27.32,49.6,6.4,5.84,7.78,15.63,3.68,26.19-4.72,12.17-17.4,25.26-34.08,25.26-11,0-22.1-5.83-32.19-16.86S64.47,788.22,61,768.1c-3.06-17.7-3.5-38.37-1.31-61.44,4.27-45,17.5-87.51,28.71-109.71,14.75-29.2,67.55-94.51,108-129.5m3.11-3.95c-42,35-97.07,103.45-112,133-24.5,48.5-50,172-7,219,11.32,12.38,22.71,17.19,32.93,17.19,28.59,0,48-37.72,31.07-53.19-23-21-27-49-27-49s5,11,23,24c7,5.06,13.41,7.09,18.74,7.09,8.34,0,14-5,15.26-11.09,2-10-15-18-15-18S91.57,710.48,98,637c7-80,90-148,90-148,2-7,11.5-25.5,11.5-25.5Z"/></g><g id="Braccio_DX" data-name="Braccio DX"><path d="M927.39,826.19c-16.92,0-29.77-13.26-34.54-25.58-4.18-10.76-2.75-20.75,3.81-26.74,22.87-20.88,27.12-49,27.16-49.3l.49-3.44-1.44,3.16c0,.11-5.18,11.05-22.84,23.8-6.34,4.58-12.72,7-18.44,7h0c-7.55,0-13.49-4.3-14.77-10.69-1.9-9.5,14.56-17.37,14.73-17.45a103.08,103.08,0,0,0,33.28-20.28c14.85-13.48,31.84-37.55,28.5-75.71-3.63-41.45-28-79.58-47.73-104.27a330,330,0,0,0-42.33-44c-1.67-5.68-7.82-18.17-10.38-23.25,40.72,34.6,95,101.57,110,131.27,11.23,22.24,24.48,64.84,28.76,109.88,6,63.54-8.47,94.1-21.69,108.55C949.76,820.3,938.5,826.19,927.39,826.19Z"/><path d="M844.43,461.45c40.46,35,93.25,100.3,108,129.5,11.22,22.2,24.44,64.74,28.71,109.71,2.19,23.07,1.75,43.74-1.31,61.44-3.48,20.12-10.29,35.84-20.24,46.73-10.1,11-21.23,16.86-32.2,16.86-16.68,0-29.36-13.09-34.08-25.26-4.09-10.56-2.71-20.35,3.69-26.19,23-21,27.27-49.32,27.31-49.6l1-6.83-2.88,6.27c0,.11-5.15,10.95-22.67,23.61-6.25,4.52-12.53,6.9-18.15,6.9-8.45,0-13.26-5.16-14.29-10.29-1.77-8.86,13.41-16.39,14.4-16.87A104.4,104.4,0,0,0,915.16,707a88.07,88.07,0,0,0,21.68-29.72c6.11-13.86,8.46-29.48,7-46.41-1.61-18.37-7.37-37.63-17.12-57.23A265.64,265.64,0,0,0,896,526.37a331.69,331.69,0,0,0-42.28-43.94c-1.53-5.06-6.38-15.15-9.27-21m-3.11-3.95s9.5,18.5,11.5,25.5c0,0,83,68,90,148,6.43,73.48-61.5,95.5-61.5,95.5s-17,8-15,18c1.22,6.1,6.92,11.09,15.27,11.09,5.32,0,11.72-2,18.73-7.09,18-13,23-24,23-24s-4,28-27,49c-16.94,15.47,2.48,53.19,31.07,53.19,10.22,0,21.61-4.81,32.93-17.19,43-47,17.5-170.5-7-219-14.92-29.55-70-98-112-133Z"/></g></svg>